  0
SECTION
  2
HEADER
  9
$ACADVER
  1
AC1006
  9
$EXTMIN
 10
0.000000
 20
0.000000
 30
0.000000
  9
$EXTMAX
 10
500.000000
 20
500.000000
 30
0.000000
  0
ENDSEC
  0
SECTION
  2
ENTITIES
  0
POLYLINE
  8
0
 66
1
 70
1
  0
VERTEX
  8
0
 10
0.000000
 20
250.000000
 42
0.000000
  0
VERTEX
  8
0
 10
0.000000
 20
0.000000
 42
0.000000
  0
VERTEX
  8
0
 10
250.000000
 20
0.000000
 42
0.000000
  0
VERTEX
  8
0
 10
500.000000
 20
0.000000
 42
0.000000
  0
VERTEX
  8
0
 10
500.000000
 20
250.000000
 42
0.000000
  0
VERTEX
  8
0
 10
500.000000
 20
500.000000
 42
0.000000
  0
VERTEX
  8
0
 10
250.000000
 20
500.000000
 42
0.000000
  0
VERTEX
  8
0
 10
0.000000
 20
500.000000
 42
0.000000
  0
SEQEND
  0
POLYLINE
  8
0
 66
1
 70
1
  0
VERTEX
  8
0
 10
411.500000
 20
419.000000
 42
0.000000
  0
VERTEX
  8
0
 10
342.505435
 20
350.000000
 42
0.000000
  0
VERTEX
  8
0
 10
250.500000
 20
350.000000
 42
0.000000
  0
VERTEX
  8
0
 10
158.494565
 20
350.000000
 42
0.000000
  0
VERTEX
  8
0
 10
89.500000
 20
419.000000
 42
0.000000
  0
VERTEX
  8
0
 10
20.505435
 20
488.000000
 42
0.000000
  0
VERTEX
  8
0
 10
250.500000
 20
488.000000
 42
0.000000
  0
VERTEX
  8
0
 10
480.494565
 20
488.000000
 42
0.000000
  0
SEQEND
  0
POLYLINE
  8
0
 66
1
 70
1
  0
VERTEX
  8
0
 10
150.000000
 20
249.500000
 42
0.000000
  0
VERTEX
  8
0
 10
150.000000
 20
157.494565
 42
0.000000
  0
VERTEX
  8
0
 10
81.000000
 20
88.500000
 42
0.000000
  0
VERTEX
  8
0
 10
12.000000
 20
19.505435
 42
0.000000
  0
VERTEX
  8
0
 10
12.000000
 20
249.500000
 42
0.000000
  0
VERTEX
  8
0
 10
12.000000
 20
479.494565
 42
0.000000
  0
VERTEX
  8
0
 10
81.000000
 20
410.500000
 42
0.000000
  0
VERTEX
  8
0
 10
150.000000
 20
341.505435
 42
0.000000
  0
SEQEND
  0
POLYLINE
  8
0
 66
1
 70
1
  0
VERTEX
  8
0
 10
488.000000
 20
249.252737
 42
0.000000
  0
VERTEX
  8
0
 10
488.000000
 20
20.505475
 42
0.000000
  0
VERTEX
  8
0
 10
419.500000
 20
89.000000
 42
0.000000
  0
VERTEX
  8
0
 10
351.000000
 20
157.494525
 42
0.000000
  0
VERTEX
  8
0
 10
351.000000
 20
249.494545
 42
0.000000
  0
VERTEX
  8
0
 10
351.000000
 20
341.494565
 42
0.000000
  0
VERTEX
  8
0
 10
419.247263
 20
409.747283
 42
-0.000173
  0
VERTEX
  8
0
 10
445.434432
 20
435.918377
 42
-0.000289
  0
VERTEX
  8
0
 10
467.521134
 20
457.950764
 42
-0.000005
  0
VERTEX
  8
0
 10
487.569811
 20
477.926687
 42
-0.198438
  0
VERTEX
  8
0
 10
487.747263
 20
478.000000
 42
-0.413889
  0
VERTEX
  8
0
 10
487.851470
 20
477.895908
 42
-0.000001
  0
VERTEX
  8
0
 10
487.925758
 20
410.805492
 42
-0.000173
  0
VERTEX
  8
0
 10
487.981839
 20
336.966083
 42
-0.000104
  0
SEQEND
  0
POLYLINE
  8
0
 66
1
 70
1
  0
VERTEX
  8
0
 10
411.000000
 20
80.500000
 42
0.000000
  0
VERTEX
  8
0
 10
479.494525
 20
12.000000
 42
0.000000
  0
VERTEX
  8
0
 10
250.500000
 20
12.000000
 42
0.000000
  0
VERTEX
  8
0
 10
21.505475
 20
12.000000
 42
0.000000
  0
VERTEX
  8
0
 10
90.000000
 20
80.500000
 42
0.000000
  0
VERTEX
  8
0
 10
158.494525
 20
149.000000
 42
0.000000
  0
VERTEX
  8
0
 10
250.500000
 20
149.000000
 42
0.000000
  0
VERTEX
  8
0
 10
342.505475
 20
149.000000
 42
0.000000
  0
SEQEND
  0
ENDSEC
  0
EOF
