  0
SECTION
  2
HEADER
  9
$ACADVER
  1
AC1006
  9
$EXTMIN
 10
0.000000
 20
0.000000
 30
0.000000
  9
$EXTMAX
 10
500.000000
 20
500.000000
 30
0.000000
  0
ENDSEC
  0
SECTION
  2
ENTITIES
  0
POLYLINE
  8
0
 66
1
 70
1
  0
VERTEX
  8
0
 10
0.000000
 20
250.000000
 42
0.000000
  0
VERTEX
  8
0
 10
0.000000
 20
0.000000
 42
0.000000
  0
VERTEX
  8
0
 10
250.000000
 20
0.000000
 42
0.000000
  0
VERTEX
  8
0
 10
500.000000
 20
0.000000
 42
0.000000
  0
VERTEX
  8
0
 10
500.000000
 20
250.000000
 42
0.000000
  0
VERTEX
  8
0
 10
500.000000
 20
500.000000
 42
0.000000
  0
VERTEX
  8
0
 10
250.000000
 20
500.000000
 42
0.000000
  0
VERTEX
  8
0
 10
0.000000
 20
500.000000
 42
0.000000
  0
SEQEND
  0
POLYLINE
  8
0
 66
1
 70
1
  0
VERTEX
  8
0
 10
188.000000
 20
443.500000
 42
0.000000
  0
VERTEX
  8
0
 10
188.000000
 20
399.000000
 42
0.000000
  0
VERTEX
  8
0
 10
182.500000
 20
399.000000
 42
0.000000
  0
VERTEX
  8
0
 10
177.000000
 20
399.000000
 42
0.000000
  0
VERTEX
  8
0
 10
177.000000
 20
436.500000
 42
0.000000
  0
VERTEX
  8
0
 10
177.000000
 20
474.000000
 42
0.000000
  0
VERTEX
  8
0
 10
102.500000
 20
474.000000
 42
0.000000
  0
VERTEX
  8
0
 10
28.000000
 20
474.000000
 42
0.000000
  0
VERTEX
  8
0
 10
28.000000
 20
361.500000
 42
0.000000
  0
VERTEX
  8
0
 10
28.000000
 20
249.000000
 42
0.000000
  0
VERTEX
  8
0
 10
20.000000
 20
249.000000
 42
0.000000
  0
VERTEX
  8
0
 10
12.000000
 20
249.000000
 42
0.000000
  0
VERTEX
  8
0
 10
12.000000
 20
368.500000
 42
0.000000
  0
VERTEX
  8
0
 10
12.000000
 20
488.000000
 42
0.000000
  0
VERTEX
  8
0
 10
100.000000
 20
488.000000
 42
0.000000
  0
VERTEX
  8
0
 10
188.000000
 20
488.000000
 42
0.000000
  0
SEQEND
  0
POLYLINE
  8
0
 66
1
 70
1
  0
VERTEX
  8
0
 10
489.000000
 20
130.500000
 42
0.000000
  0
VERTEX
  8
0
 10
489.000000
 20
11.000000
 42
0.000000
  0
VERTEX
  8
0
 10
401.000000
 20
11.000000
 42
0.000000
  0
VERTEX
  8
0
 10
313.000000
 20
11.000000
 42
0.000000
  0
VERTEX
  8
0
 10
313.000000
 20
55.500000
 42
0.000000
  0
VERTEX
  8
0
 10
313.000000
 20
100.000000
 42
0.000000
  0
VERTEX
  8
0
 10
318.500000
 20
100.000000
 42
0.000000
  0
VERTEX
  8
0
 10
324.000000
 20
100.000000
 42
0.000000
  0
VERTEX
  8
0
 10
324.000000
 20
62.500000
 42
0.000000
  0
VERTEX
  8
0
 10
324.000000
 20
25.000000
 42
0.000000
  0
VERTEX
  8
0
 10
398.500000
 20
25.000000
 42
0.000000
  0
VERTEX
  8
0
 10
473.000000
 20
25.000000
 42
0.000000
  0
VERTEX
  8
0
 10
473.000000
 20
137.500000
 42
0.000000
  0
VERTEX
  8
0
 10
473.000000
 20
250.000000
 42
0.000000
  0
VERTEX
  8
0
 10
481.000000
 20
250.000000
 42
0.000000
  0
VERTEX
  8
0
 10
489.000000
 20
250.000000
 42
0.000000
  0
SEQEND
  0
ENDSEC
  0
EOF
