  0
SECTION
  2
HEADER
  9
$ACADVER
  1
AC1006
  9
$EXTMIN
 10
0.000000
 20
0.000000
 30
0.000000
  9
$EXTMAX
 10
500.000000
 20
500.000000
 30
0.000000
  0
ENDSEC
  0
SECTION
  2
ENTITIES
  0
POLYLINE
  8
0
 66
1
 70
1
  0
VERTEX
  8
0
 10
0.000000
 20
250.000000
 42
0.000000
  0
VERTEX
  8
0
 10
0.000000
 20
0.000000
 42
0.000000
  0
VERTEX
  8
0
 10
250.000000
 20
0.000000
 42
0.000000
  0
VERTEX
  8
0
 10
500.000000
 20
0.000000
 42
0.000000
  0
VERTEX
  8
0
 10
500.000000
 20
250.000000
 42
0.000000
  0
VERTEX
  8
0
 10
500.000000
 20
500.000000
 42
0.000000
  0
VERTEX
  8
0
 10
250.000000
 20
500.000000
 42
0.000000
  0
VERTEX
  8
0
 10
0.000000
 20
500.000000
 42
0.000000
  0
SEQEND
  0
POLYLINE
  8
0
 66
1
 70
1
  0
VERTEX
  8
0
 10
364.000000
 20
423.500000
 42
0.000000
  0
VERTEX
  8
0
 10
364.000000
 20
374.000000
 42
0.000000
  0
VERTEX
  8
0
 10
321.000000
 20
374.000000
 42
0.000000
  0
VERTEX
  8
0
 10
278.000000
 20
374.000000
 42
0.000000
  0
VERTEX
  8
0
 10
278.000000
 20
326.000000
 42
0.000000
  0
VERTEX
  8
0
 10
278.000000
 20
278.000000
 42
0.000000
  0
VERTEX
  8
0
 10
326.500000
 20
278.000000
 42
0.000000
  0
VERTEX
  8
0
 10
375.000000
 20
278.000000
 42
0.000000
  0
VERTEX
  8
0
 10
375.000000
 20
320.000000
 42
0.000000
  0
VERTEX
  8
0
 10
375.000000
 20
362.000000
 42
0.000000
  0
VERTEX
  8
0
 10
424.500000
 20
362.000000
 42
0.000000
  0
VERTEX
  8
0
 10
474.000000
 20
362.000000
 42
0.000000
  0
VERTEX
  8
0
 10
474.000000
 20
249.000000
 42
0.000000
  0
VERTEX
  8
0
 10
474.000000
 20
136.000000
 42
0.000000
  0
VERTEX
  8
0
 10
424.500000
 20
136.000000
 42
0.000000
  0
VERTEX
  8
0
 10
375.000000
 20
136.000000
 42
0.000000
  0
VERTEX
  8
0
 10
375.000000
 20
179.000000
 42
0.000000
  0
VERTEX
  8
0
 10
375.000000
 20
222.000000
 42
0.000000
  0
VERTEX
  8
0
 10
326.500000
 20
222.000000
 42
0.000000
  0
VERTEX
  8
0
 10
278.000000
 20
222.000000
 42
0.000000
  0
VERTEX
  8
0
 10
278.000000
 20
173.500000
 42
0.000000
  0
VERTEX
  8
0
 10
278.000000
 20
125.000000
 42
0.000000
  0
VERTEX
  8
0
 10
320.500000
 20
125.000000
 42
0.000000
  0
VERTEX
  8
0
 10
363.000000
 20
125.000000
 42
0.000000
  0
VERTEX
  8
0
 10
363.000000
 20
75.500000
 42
0.000000
  0
VERTEX
  8
0
 10
363.000000
 20
26.000000
 42
0.000000
  0
VERTEX
  8
0
 10
250.000000
 20
26.000000
 42
0.000000
  0
VERTEX
  8
0
 10
137.000000
 20
26.000000
 42
0.000000
  0
VERTEX
  8
0
 10
137.000000
 20
75.500000
 42
0.000000
  0
VERTEX
  8
0
 10
137.000000
 20
125.000000
 42
0.000000
  0
VERTEX
  8
0
 10
179.500000
 20
125.000000
 42
0.000000
  0
VERTEX
  8
0
 10
222.000000
 20
125.000000
 42
0.000000
  0
VERTEX
  8
0
 10
222.000000
 20
173.500000
 42
0.000000
  0
VERTEX
  8
0
 10
222.000000
 20
222.000000
 42
0.000000
  0
VERTEX
  8
0
 10
174.000000
 20
222.000000
 42
0.000000
  0
VERTEX
  8
0
 10
126.000000
 20
222.000000
 42
0.000000
  0
VERTEX
  8
0
 10
126.000000
 20
179.500000
 42
0.000000
  0
VERTEX
  8
0
 10
126.000000
 20
137.000000
 42
0.000000
  0
VERTEX
  8
0
 10
76.500000
 20
137.000000
 42
0.000000
  0
VERTEX
  8
0
 10
27.000000
 20
137.000000
 42
0.000000
  0
VERTEX
  8
0
 10
27.000000
 20
250.000000
 42
0.000000
  0
VERTEX
  8
0
 10
27.000000
 20
363.000000
 42
0.000000
  0
VERTEX
  8
0
 10
76.500000
 20
363.000000
 42
0.000000
  0
VERTEX
  8
0
 10
126.000000
 20
363.000000
 42
0.000000
  0
VERTEX
  8
0
 10
126.000000
 20
320.500000
 42
0.000000
  0
VERTEX
  8
0
 10
126.000000
 20
278.000000
 42
0.000000
  0
VERTEX
  8
0
 10
174.000000
 20
278.000000
 42
0.000000
  0
VERTEX
  8
0
 10
222.000000
 20
278.000000
 42
0.000000
  0
VERTEX
  8
0
 10
222.000000
 20
326.000000
 42
0.000000
  0
VERTEX
  8
0
 10
222.000000
 20
374.000000
 42
0.000000
  0
VERTEX
  8
0
 10
180.000000
 20
374.000000
 42
0.000000
  0
VERTEX
  8
0
 10
138.000000
 20
374.000000
 42
0.000000
  0
VERTEX
  8
0
 10
138.000000
 20
423.500000
 42
0.000000
  0
VERTEX
  8
0
 10
138.000000
 20
473.000000
 42
0.000000
  0
VERTEX
  8
0
 10
251.000000
 20
473.000000
 42
0.000000
  0
VERTEX
  8
0
 10
364.000000
 20
473.000000
 42
0.000000
  0
SEQEND
  0
ENDSEC
  0
EOF
