  0
SECTION
  2
HEADER
  9
$ACADVER
  1
AC1006
  9
$EXTMIN
 10
0.000000
 20
0.000000
 30
0.000000
  9
$EXTMAX
 10
500.000000
 20
500.000000
 30
0.000000
  0
ENDSEC
  0
SECTION
  2
ENTITIES
  0
POLYLINE
  8
0
 66
1
 70
1
  0
VERTEX
  8
0
 10
0.000000
 20
250.000000
 42
0.000000
  0
VERTEX
  8
0
 10
0.000000
 20
0.000000
 42
0.000000
  0
VERTEX
  8
0
 10
250.000000
 20
0.000000
 42
0.000000
  0
VERTEX
  8
0
 10
500.000000
 20
0.000000
 42
0.000000
  0
VERTEX
  8
0
 10
500.000000
 20
250.000000
 42
0.000000
  0
VERTEX
  8
0
 10
500.000000
 20
500.000000
 42
0.000000
  0
VERTEX
  8
0
 10
250.000000
 20
500.000000
 42
0.000000
  0
VERTEX
  8
0
 10
0.000000
 20
500.000000
 42
0.000000
  0
SEQEND
  0
POLYLINE
  8
0
 66
1
 70
1
  0
VERTEX
  8
0
 10
366.000000
 20
368.500000
 42
0.000000
  0
VERTEX
  8
0
 10
366.000000
 20
362.000000
 42
0.000000
  0
VERTEX
  8
0
 10
258.251769
 20
362.000000
 42
0.000000
  0
VERTEX
  8
0
 10
150.503538
 20
362.000000
 42
0.000000
  0
VERTEX
  8
0
 10
256.501769
 20
255.996128
 42
0.000000
  0
VERTEX
  8
0
 10
362.500000
 20
149.992255
 42
0.000000
  0
VERTEX
  8
0
 10
362.776046
 20
164.996128
 42
0.000000
  0
VERTEX
  8
0
 10
363.052092
 20
180.000000
 42
0.000000
  0
VERTEX
  8
0
 10
369.526046
 20
180.000000
 42
0.000000
  0
VERTEX
  8
0
 10
376.000000
 20
180.000000
 42
0.000000
  0
VERTEX
  8
0
 10
376.000000
 20
152.000000
 42
0.000000
  0
VERTEX
  8
0
 10
376.000000
 20
124.000000
 42
0.000000
  0
VERTEX
  8
0
 10
348.000000
 20
124.000000
 42
0.000000
  0
VERTEX
  8
0
 10
320.000000
 20
124.000000
 42
0.000000
  0
VERTEX
  8
0
 10
320.000000
 20
130.475229
 42
0.000000
  0
VERTEX
  8
0
 10
320.000000
 20
136.950457
 42
0.000000
  0
VERTEX
  8
0
 10
336.003651
 20
137.225229
 42
0.000000
  0
VERTEX
  8
0
 10
352.007302
 20
137.500000
 42
0.000000
  0
VERTEX
  8
0
 10
245.003651
 20
244.498248
 42
0.000000
  0
VERTEX
  8
0
 10
138.000000
 20
351.496495
 42
0.000000
  0
VERTEX
  8
0
 10
138.000000
 20
242.748248
 42
0.000000
  0
VERTEX
  8
0
 10
138.000000
 20
134.000000
 42
0.000000
  0
VERTEX
  8
0
 10
131.500000
 20
134.000000
 42
0.000000
  0
VERTEX
  8
0
 10
125.000000
 20
134.000000
 42
0.000000
  0
VERTEX
  8
0
 10
125.000000
 20
254.500000
 42
0.000000
  0
VERTEX
  8
0
 10
125.000000
 20
375.000000
 42
0.000000
  0
VERTEX
  8
0
 10
245.500000
 20
375.000000
 42
0.000000
  0
VERTEX
  8
0
 10
366.000000
 20
375.000000
 42
0.000000
  0
SEQEND
  0
ENDSEC
  0
EOF
